<svg xmlns="http://www.w3.org/2000/svg" version="1.1" xmlns:xlink="http://www.w3.org/1999/xlink" width="1500" height="1500" viewBox="0 0 1500 1500"><rect width="1500" height="1500" x="0" y="0" id="background" stroke="transparent" fill="#ffffff"></rect><svg xml:space="preserve" width="1000" height="1000" data-version="2" data-id="lg_d4WXK6Ix3ltSrfjeQj" viewBox="0 0 299 291" x="250" y="250"><rect width="100%" height="100%" fill="transparent"></rect><path fill="#0074d9" d="M31.305 287.052q-7.04 0-12.43-3.7-5.4-3.71-8.41-10.53-3.01-6.82-3.01-16.11 0-9.3 3.04-16.09 3.03-6.79 8.4-10.47 5.37-3.68 12.41-3.68 5.69 0 11.28 2.84 5.58 2.85 8.43 9.62l-1.02.43v-34.16h9.02v80.56h-8.48v-12.08l.27.86q-2.37 6.34-7.85 9.42-5.47 3.09-11.65 3.09m2.36-7.52q4.57 0 8.33-2.36t6.01-7.39q2.26-5.02 2.26-12.86 0-11.71-4.83-17.32-4.84-5.61-11.66-5.61-7.2 0-11.82 5.93-4.62 5.94-4.62 17 0 10.74 4.46 16.68 4.46 5.93 11.87 5.93"></path><rect width="51.56" height="81.85" x="-25.78" y="-40.92" fill="none" rx="0" ry="0" transform="translate(33.73 246.63)"></rect><path fill="#0074d9" d="m85.785 285.762-16.11-58h9.56l13.8 53.6h-1.66l13.75-53.6h11.6l14.02 54.03h-1.94l13.92-54.03h9.56l-16.12 58h-12.67l-13.32-51.88h1.61l-13.32 51.88Z"></path><rect width="82.61" height="58" x="-41.3" y="-29" fill="none" rx="0" ry="0" transform="translate(111.48 257.26)"></rect><path fill="#0074d9" d="M176.145 287.052q-5.8 0-10.07-2.23-4.27-2.23-6.58-6.09-2.31-3.87-2.31-8.76 0-5.21 3.07-9.61 3.06-4.41 9.48-7.06 6.41-2.66 16.46-2.66h9.67l-.97.96v-3.17q0-6.98-2.79-10.71-2.8-3.73-9.35-3.73-6.18 0-9.51 3.19-3.33 3.2-3.54 8.57l-10.15-2.31q.48-4.67 3.57-8.51t8.27-6.15q5.18-2.31 12.01-2.31 7.03 0 11.46 2.66 4.43 2.65 6.53 7.65 2.09 4.99 2.09 12.03v26.48q0 1.77.51 2.36.51.59 2.18.59h3.28v7.52h-5.75q-3.65 0-6.12-2.28-2.48-2.28-2.48-5.77v-4.09h1.35q-.86 2.26-2.47 4.6-1.61 2.33-4.09 4.35-2.47 2.01-5.88 3.25-3.41 1.23-7.87 1.23m2.05-7.52q4.45 0 8.27-2.2 3.81-2.2 6.15-6.9 2.33-4.7 2.33-12.22v-.48h-9.07q-7.15 0-11.26 1.88-4.11 1.88-5.82 4.64-1.72 2.77-1.72 5.51 0 2.74 1.23 4.94 1.24 2.2 3.71 3.52 2.47 1.31 6.18 1.31"></path><rect width="52.27" height="60.58" x="-26.14" y="-30.29" fill="none" rx="0" ry="0" transform="translate(183.82 257.26)"></rect><path fill="#0074d9" d="M220.485 285.762v-58h8.48v13.1l-.37-2.36q2.31-5 7.3-8.52 5-3.51 12.14-3.51 6.18 0 10.63 2.74 4.46 2.74 6.88 7.81 2.42 5.08 2.42 12.22v36.52h-9.03v-35.82q0-7.15-2.92-11.55-2.93-4.4-9.65-4.4-7.25 0-12.05 5.5-4.81 5.51-4.81 15.93v30.34Z"></path><rect width="47.48" height="59.29" x="-23.74" y="-29.64" fill="none" rx="0" ry="0" transform="translate(244.72 256.62)"></rect><path fill="#0074d9" d="M283.025 285.762v-58h9.02v58Zm4.51-67.73q-3.12 0-5.32-2.2t-2.2-5.32q0-3.16 2.2-5.34 2.2-2.17 5.32-2.17 3.17 0 5.34 2.17 2.18 2.18 2.18 5.34 0 3.12-2.18 5.32-2.17 2.2-5.34 2.2"></path><rect width="15.04" height="82.76" x="-7.52" y="-41.38" fill="none" rx="0" ry="0" transform="translate(288.04 244.88)"></rect><path fill="#0074d9" d="M140.815 160.568a5.396 5.396 0 0 1-5.228-4.011L112.76 72.328l-24.087 47.24c-.804 1.587-2.337 2.663-4.087 2.934a5.543 5.543 0 0 1-4.739-1.684L56.271 95.383H8.38a5.435 5.435 0 0 1 0-10.87h50.25c1.51 0 2.956.63 3.989 1.74L82.52 107.72l26.946-52.87c1.022-2 3.098-3.206 5.402-2.935a5.427 5.427 0 0 1 4.685 3.979l20.576 75.87L166 7.273a5.389 5.389 0 0 1 5.228-4.305c2.63-.25 4.76 1.674 5.37 4.153l18.347 75.141 17.892-8.152a5.474 5.474 0 0 1 2.25-.49h32.424c2.989 0 5.435 2.436 5.435 5.436s-2.446 5.434-5.435 5.434h-31.272l-22.804 10.38a5.427 5.427 0 0 1-4.61-.053 5.51 5.51 0 0 1-2.923-3.61l-14.185-58.14-25.587 123.174a5.37 5.37 0 0 1-5.163 4.326z"></path></svg></svg>